#!OML:ASF F:\VICON\USERDATA\INSTALL\rory3\rory3.ASF
:FULLY-SPECIFIED
:DEGREES
1364
root 2.10297 18.57 2.06794 -3.59865 -39.7052 -2.63074
lowerback 4.74971 0.788381 2.57709
upperback 0.263392 1.17346 -0.538233
thorax -2.32875 0.554768 -2.07755
lowerneck -6.33083 -2.88357 -8.88593
upperneck 12.3082 -4.30752 10.3211
head 5.13225 -1.92034 4.42202
rclavicle -7.29043e-014 -1.98785e-015
rhumerus 104.853 -42.187 -99.8291
rradius 96.7817
rwrist 11.3229
rhand -43.5285 -3.79025
rfingers 7.12502
rthumb -16.3673 -33.1196
lclavicle -7.29043e-014 -1.98785e-015
lhumerus 30.4365 29.6494 40.104
lradius 110.747
lwrist 11.7772
lhand -33.1264 30.3703
lfingers 7.12502
lthumb -6.3362 60.2555
rfemur -2.47885 13.4624 28.7224
rtibia 27.7706
rfoot -20.8369 -16.4573
rtoes 6.55665
lfemur -16.1528 2.22818 -4.98578
ltibia 52.0101
lfoot -6.56346 7.03984
ltoes -10.8856
1365
root 2.0669 18.5776 2.04293 -3.94291 -40.7628 -1.38095
lowerback 4.42027 0.888678 1.9184
upperback 0.186692 1.26352 -0.659411
thorax -2.22943 0.606746 -1.83256
lowerneck -5.93762 -2.62155 -8.70073
upperneck 11.7819 -3.89854 9.87093
head 4.85151 -1.75019 4.27377
rclavicle 8.02966e-014 -7.7526e-015
rhumerus 102.674 -42.5432 -98.0345
rradius 96.3971
rwrist 11.2066
rhand -43.3533 -3.27306
rfingers 7.12502
rthumb -16.1985 -32.6163
lclavicle 8.02966e-014 -7.7526e-015
lhumerus 28.1515 28.8917 40.0026
lradius 109.573
lwrist 12.0491
lhand -32.0854 30.4507
lfingers 7.12502
lthumb -5.33123 60.3636
rfemur -3.15772 13.6879 27.6223
rtibia 28.073
rfoot -20.8106 -15.6523
rtoes 6.24921
lfemur -16.8461 1.71984 -6.52637
ltibia 51.6887
lfoot -7.18119 8.98501
ltoes -9.28916
1366
root 2.03222 18.5844 2.02364 -4.07294 -41.9176 -0.720897
lowerback 4.24159 1.03738 1.82805
upperback 0.209135 1.4523 -0.731956
thorax -2.09796 0.703294 -1.86344
lowerneck -5.75646 -2.40514 -8.32173
upperneck 11.2758 -3.55921 9.39597
head 4.61996 -1.59948 4.07861
rclavicle 1.24365e-014 4.96962e-015
rhumerus 100.597 -43.067 -96.2636
rradius 96.0097
rwrist 10.7437
rhand -43.1725 -2.46508
rfingers 7.12502
rthumb -16.0245 -31.8224
lclavicle 1.24365e-014 4.96962e-015
lhumerus 26.2827 28.086 40.0381
lradius 108.259
lwrist 12.5623
lhand -31.1132 30.8983
lfingers 7.12502
lthumb -4.39244 60.8328
rfemur -3.68467 13.7889 27.0518
rtibia 28.42
rfoot -20.6994 -14.7214
rtoes 5.49847
lfemur -17.3572 1.29442 -7.49574
ltibia 51.3367
lfoot -7.88919 10.7568
ltoes -7.65645
1367
root 1.9966 18.5862 2.00564 -4.06883 -43.0917 -0.540465
lowerback 4.26418 1.16612 2.11332
upperback 0.271892 1.6371 -0.748173
thorax -2.02932 0.794188 -2.05032
lowerneck -5.69692 -2.11825 -8.01659
upperneck 10.9967 -3.16739 9.25133
head 4.48206 -1.40447 4.00435
rclavicle -6.60338e-015 -3.18055e-015
rhumerus 98.2686 -43.5944 -94.3617
rradius 95.5334
rwrist 10.5534
rhand -42.8261 -2.22223
rfingers 7.12502
rthumb -15.6909 -31.606
lclavicle -6.60338e-015 -3.18055e-015
lhumerus 24.4449 27.2462 39.9655
lradius 106.756
lwrist 13.2896
lhand -30.5219 31.5622
lfingers 7.12502
lthumb -3.8215 61.5077
rfemur -3.94272 14.0579 26.9742
rtibia 28.6547
rfoot -20.5846 -14.0174
rtoes 5.05245
lfemur -17.7503 0.88196 -8.0203
ltibia 50.9951
lfoot -8.35943 12.1762
ltoes -6.42932
1368
root 1.95981 18.5866 1.98263 -3.97786 -44.2823 -0.51862
lowerback 4.37868 1.19441 2.3317
upperback 0.274749 1.6915 -0.581619
thorax -2.08654 0.819164 -2.00756
lowerneck -5.56325 -1.75885 -7.94033
upperneck 10.8128 -2.65759 9.03863
head 4.35425 -1.16556 3.95399
rclavicle -5.47155e-014 9.54166e-015
rhumerus 95.4555 -43.6381 -92.1126
rradius 95.0225
rwrist 10.5499
rhand -41.739 -2.58149
rfingers 7.12502
rthumb -14.6437 -32.0444
lclavicle -5.47155e-014 9.54166e-015
lhumerus 21.9538 26.5696 39.8293
lradius 105.184
lwrist 13.8252
lhand -30.0916 31.1931
lfingers 7.12502
lthumb -3.40595 61.1456
rfemur -4.12958 14.3832 27.0476
rtibia 28.7541
rfoot -20.4616 -13.3946
rtoes 4.46159
lfemur -18.1743 0.493722 -8.36814
ltibia 50.6378
lfoot -8.65315 13.1917
ltoes -5.14913
1369
root 1.92111 18.5839 1.9602 -3.86982 -45.4955 -0.541379
lowerback 4.5143 1.11357 2.39914
upperback 0.251049 1.59865 -0.225979
thorax -2.2 0.771639 -1.67799
lowerneck -5.49919 -1.34831 -8.13038
upperneck 10.7673 -2.04276 8.70659
head 4.27458 -0.888936 3.91591
rclavicle -1.78132e-014 -6.31141e-015
rhumerus 92.3431 -43.1607 -89.5483
rradius 94.5143
rwrist 10.5644
rhand -40.6892 -2.66878
rfingers 7.12502
rthumb -13.6321 -32.2024
lclavicle -1.78132e-014 -6.31141e-015
lhumerus 19.0431 26.0865 39.6167
lradius 103.569
lwrist 14.1942
lhand -29.5776 30.7178
lfingers 7.12502
lthumb -2.90955 60.6777
rfemur -4.27433 14.6751 27.1437
rtibia 28.8193
rfoot -20.4737 -12.5455
rtoes 4.08018
lfemur -18.5415 0.146344 -8.63601
ltibia 50.2102
lfoot -9.10021 14.0796
ltoes -2.80035
1370
root 1.87931 18.5847 1.94683 -3.91224 -46.7007 -0.384402
lowerback 4.60022 1.14843 2.52568
upperback 0.29966 1.65545 -0.110978
thorax -2.19535 0.799487 -1.63552
lowerneck -5.57253 -1.06278 -8.01415
upperneck 10.6747 -1.63442 8.52203
head 4.22131 -0.69095 3.85984
rclavicle -3.53914e-014 2.03754e-015
rhumerus 89.2546 -43.072 -87.0278
rradius 93.9413
rwrist 10.6309
rhand -40.0308 -2.27545
rfingers 7.12502
rthumb -12.9975 -31.8506
lclavicle -3.53914e-014 2.03754e-015
lhumerus 16.7651 25.3485 39.4654
lradius 101.842
lwrist 14.6862
lhand -29.1816 30.5662
lfingers 7.12502
lthumb -2.52706 60.531
rfemur -4.34737 14.9873 27.1141
rtibia 28.8895
rfoot -20.4437 -11.7454
rtoes 3.85285
lfemur -18.8056 -0.318368 -9.06571
ltibia 49.6561
lfoot -9.70749 14.9799
ltoes -1.21234
1371
root 1.83743 18.5843 1.93662 -4.09593 -47.9844 -0.0558746
lowerback 4.6454 1.31717 2.71907
upperback 0.452432 1.88519 -0.263779
thorax -2.04141 0.915336 -1.91354
lowerneck -5.85265 -0.88669 -7.50508
upperneck 10.5654 -1.41568 8.46823
head 4.21315 -0.559846 3.76867
rclavicle -1.95818e-014 5.51627e-015
rhumerus 86.1868 -43.296 -84.7196
rradius 93.3993
rwrist 10.7857
rhand -39.445 -1.79944
rfingers 7.12502
rthumb -12.4327 -31.4097
lclavicle -1.95818e-014 5.51627e-015
lhumerus 15.0774 24.4865 39.4693
lradius 100.037
lwrist 15.3974
lhand -28.6803 30.3443
lfingers 7.12502
lthumb -2.04299 60.3142
rfemur -4.40498 15.3551 26.9608
rtibia 28.9744
rfoot -20.3247 -10.8993
rtoes 4.02867
lfemur -18.996 -0.868069 -9.61308
ltibia 48.9706
lfoot -10.4846 15.7293
ltoes -0.48212
1372
root 1.79894 18.5845 1.92697 -4.35286 -49.2999 0.33713
lowerback 4.73033 1.45724 2.88427
upperback 0.584576 2.07768 -0.378558
thorax -1.93268 1.01264 -2.13563
lowerneck -6.0603 -0.706301 -7.13418
upperneck 10.4532 -1.1759 8.34522
head 4.19207 -0.42926 3.68023
rclavicle -3.01718e-014 -5.96354e-015
rhumerus 82.8789 -43.2511 -82.1686
rradius 92.847
rwrist 11.0446
rhand -38.99 -1.42209
rfingers 7.12502
rthumb -11.994 -31.0584
lclavicle -3.01718e-014 -5.96354e-015
lhumerus 13.2835 23.762 39.595
lradius 98.2444
lwrist 16.1428
lhand -28.1664 30.0768
lfingers 7.12502
lthumb -1.54661 60.051
rfemur -4.48271 15.712 26.7655
rtibia 29.0939
rfoot -20.0626 -10.1474
rtoes 3.89914
lfemur -19.1208 -1.44151 -10.1914
ltibia 48.1679
lfoot -10.9491 16.2787
ltoes 0.125867
1373
root 1.76115 18.5848 1.92106 -4.66518 -50.4984 0.74669
lowerback 4.8599 1.56706 3.10106
upperback 0.700419 2.23383 -0.519688
thorax -1.86293 1.09101 -2.41341
lowerneck -6.12251 -0.553529 -6.73618
upperneck 10.2408 -0.977748 8.19319
head 4.12048 -0.323405 3.57486
rclavicle 1.19392e-013 3.47873e-015
rhumerus 79.3317 -43.0656 -79.4449
rradius 92.3185
rwrist 11.3228
rhand -38.374 -1.39247
rfingers 7.12502
rthumb -11.4 -31.0626
lclavicle 1.19392e-013 3.47873e-015
lhumerus 11.6941 22.9824 39.7085
lradius 96.3222
lwrist 16.9774
lhand -27.7009 30.1275
lfingers 7.12502
lthumb -1.09704 60.1044
rfemur -4.52573 16.0401 26.584
rtibia 29.2586
rfoot -19.8777 -9.5494
rtoes 3.6691
lfemur -19.1938 -2.12144 -10.7642
ltibia 47.2601
lfoot -11.0911 16.4194
ltoes -0.547632
1374
root 1.71905 18.5764 1.91399 -4.97387 -51.6881 1.17946
lowerback 4.96276 1.7298 3.12235
upperback 0.802821 2.45112 -0.597775
thorax -1.79674 1.20135 -2.51985
lowerneck -6.01921 -0.437742 -6.27469
upperneck 9.88425 -0.829844 7.97009
head 3.98219 -0.247885 3.4324
rclavicle -1.01178e-013 -2.98177e-015
rhumerus 75.6314 -42.7946 -76.4898
rradius 91.7614
rwrist 11.411
rhand -37.9021 -1.19361
rfingers 7.12502
rthumb -10.9448 -30.8883
lclavicle -1.01178e-013 -2.98177e-015
lhumerus 10.353 22.1401 40.156
lradius 94.3086
lwrist 17.6637
lhand -27.0594 30.393
lfingers 7.12502
lthumb -0.477456 60.3722
rfemur -4.61354 16.1528 26.401
rtibia 29.4174
rfoot -19.7658 -8.89143
rtoes 2.72343
lfemur -19.2825 -2.85486 -11.2625
ltibia 46.2678
lfoot -11.5694 16.0124
ltoes -2.72765
1375
root 1.67383 18.5636 1.90311 -4.97533 -53.0592 1.31974
lowerback 5.04073 1.94442 3.20114
upperback 0.867253 2.74226 -0.58902
thorax -1.75147 1.34764 -2.57339
lowerneck -6.15299 -0.312654 -5.76674
upperneck 9.79286 -0.670492 7.68199
head 3.96394 -0.162826 3.26612
rclavicle -6.20445e-015 3.18055e-015
rhumerus 71.988 -42.313 -73.5992
rradius 91.1549
rwrist 11.8756
rhand -37.6866 -0.847701
rfingers 7.12502
rthumb -10.737 -30.5533
lclavicle -6.20445e-015 3.18055e-015
lhumerus 9.11373 21.3845 40.6747
lradius 92.2411
lwrist 18.4172
lhand -26.3573 30.4069
lfingers 7.12502
lthumb 0.200654 60.3866
rfemur -4.79469 16.4031 26.4328
rtibia 29.5711
rfoot -19.7118 -8.12934
rtoes 2.12879
lfemur -19.4093 -3.52671 -11.4273
ltibia 45.1887
lfoot -11.7157 15.4149
ltoes -0.867026
